<mxfile host="app.diagrams.net" modified="2023-09-28T14:46:06.064Z" agent="Mozilla/5.0 (Windows NT 10.0; Win64; x64) AppleWebKit/537.36 (KHTML, like Gecko) Chrome/117.0.0.0 Safari/537.36 Edg/117.0.2045.43" etag="skJwwAXx7IVOI-ZA7HC1" version="21.8.1" type="device">
  <diagram id="C5RBs43oDa-KdzZeNtuy" name="Page-1">
    <mxGraphModel dx="513" dy="569" grid="1" gridSize="10" guides="1" tooltips="1" connect="1" arrows="1" fold="1" page="1" pageScale="1" pageWidth="827" pageHeight="1169" math="0" shadow="0">
      <root>
        <mxCell id="WIyWlLk6GJQsqaUBKTNV-0" />
        <mxCell id="WIyWlLk6GJQsqaUBKTNV-1" parent="WIyWlLk6GJQsqaUBKTNV-0" />
        <mxCell id="8xb5XbixMklPuhkkYm6k-2" value="" style="edgeStyle=orthogonalEdgeStyle;rounded=0;orthogonalLoop=1;jettySize=auto;html=1;" edge="1" parent="WIyWlLk6GJQsqaUBKTNV-1" source="8xb5XbixMklPuhkkYm6k-0" target="8xb5XbixMklPuhkkYm6k-1">
          <mxGeometry relative="1" as="geometry" />
        </mxCell>
        <mxCell id="8xb5XbixMklPuhkkYm6k-0" value="print out : &quot;Inventory:&quot;" style="ellipse;whiteSpace=wrap;html=1;aspect=fixed;" vertex="1" parent="WIyWlLk6GJQsqaUBKTNV-1">
          <mxGeometry x="200" y="100" width="80" height="80" as="geometry" />
        </mxCell>
        <mxCell id="8xb5XbixMklPuhkkYm6k-1" value="" style="shape=waypoint;sketch=0;size=6;pointerEvents=1;points=[];fillColor=default;resizable=0;rotatable=0;perimeter=centerPerimeter;snapToPoint=1;" vertex="1" parent="WIyWlLk6GJQsqaUBKTNV-1">
          <mxGeometry x="230" y="220" width="20" height="20" as="geometry" />
        </mxCell>
        <mxCell id="8xb5XbixMklPuhkkYm6k-5" value="" style="edgeStyle=orthogonalEdgeStyle;rounded=0;orthogonalLoop=1;jettySize=auto;html=1;" edge="1" parent="WIyWlLk6GJQsqaUBKTNV-1" source="8xb5XbixMklPuhkkYm6k-3" target="8xb5XbixMklPuhkkYm6k-4">
          <mxGeometry relative="1" as="geometry" />
        </mxCell>
        <mxCell id="8xb5XbixMklPuhkkYm6k-6" value="yes" style="edgeLabel;html=1;align=center;verticalAlign=middle;resizable=0;points=[];" vertex="1" connectable="0" parent="8xb5XbixMklPuhkkYm6k-5">
          <mxGeometry x="-0.08" y="-3" relative="1" as="geometry">
            <mxPoint as="offset" />
          </mxGeometry>
        </mxCell>
        <mxCell id="8xb5XbixMklPuhkkYm6k-9" value="" style="edgeStyle=orthogonalEdgeStyle;rounded=0;orthogonalLoop=1;jettySize=auto;html=1;" edge="1" parent="WIyWlLk6GJQsqaUBKTNV-1" source="8xb5XbixMklPuhkkYm6k-3" target="8xb5XbixMklPuhkkYm6k-8">
          <mxGeometry relative="1" as="geometry" />
        </mxCell>
        <mxCell id="8xb5XbixMklPuhkkYm6k-10" value="no" style="edgeLabel;html=1;align=center;verticalAlign=middle;resizable=0;points=[];" vertex="1" connectable="0" parent="8xb5XbixMklPuhkkYm6k-9">
          <mxGeometry x="-0.4571" y="4" relative="1" as="geometry">
            <mxPoint as="offset" />
          </mxGeometry>
        </mxCell>
        <mxCell id="8xb5XbixMklPuhkkYm6k-3" value="is inventory empty?" style="whiteSpace=wrap;html=1;aspect=fixed;" vertex="1" parent="WIyWlLk6GJQsqaUBKTNV-1">
          <mxGeometry x="200" y="230" width="80" height="80" as="geometry" />
        </mxCell>
        <mxCell id="8xb5XbixMklPuhkkYm6k-4" value="" style="shape=waypoint;sketch=0;size=6;pointerEvents=1;points=[];fillColor=default;resizable=0;rotatable=0;perimeter=centerPerimeter;snapToPoint=1;" vertex="1" parent="WIyWlLk6GJQsqaUBKTNV-1">
          <mxGeometry x="350" y="260" width="20" height="20" as="geometry" />
        </mxCell>
        <mxCell id="8xb5XbixMklPuhkkYm6k-7" value="print out: &quot;ANSI_YELLOW + &#39;EMPTY&#39; + ANSI_RESET&quot;" style="whiteSpace=wrap;html=1;aspect=fixed;" vertex="1" parent="WIyWlLk6GJQsqaUBKTNV-1">
          <mxGeometry x="360" y="230" width="100" height="100" as="geometry" />
        </mxCell>
        <mxCell id="8xb5XbixMklPuhkkYm6k-8" value="" style="shape=waypoint;sketch=0;size=6;pointerEvents=1;points=[];fillColor=default;resizable=0;rotatable=0;perimeter=centerPerimeter;snapToPoint=1;" vertex="1" parent="WIyWlLk6GJQsqaUBKTNV-1">
          <mxGeometry x="230" y="370" width="20" height="20" as="geometry" />
        </mxCell>
        <mxCell id="8xb5XbixMklPuhkkYm6k-12" value="" style="shape=waypoint;sketch=0;size=6;pointerEvents=1;points=[];fillColor=default;resizable=0;rotatable=0;perimeter=centerPerimeter;snapToPoint=1;" vertex="1" parent="WIyWlLk6GJQsqaUBKTNV-1">
          <mxGeometry x="240" y="520" width="20" height="20" as="geometry" />
        </mxCell>
        <mxCell id="8xb5XbixMklPuhkkYm6k-17" value="" style="edgeStyle=orthogonalEdgeStyle;rounded=0;orthogonalLoop=1;jettySize=auto;html=1;" edge="1" parent="WIyWlLk6GJQsqaUBKTNV-1" source="8xb5XbixMklPuhkkYm6k-15" target="8xb5XbixMklPuhkkYm6k-16">
          <mxGeometry relative="1" as="geometry" />
        </mxCell>
        <mxCell id="8xb5XbixMklPuhkkYm6k-15" value="create an array that saves blockcounts for every blocktype in the inventory" style="ellipse;whiteSpace=wrap;html=1;aspect=fixed;" vertex="1" parent="WIyWlLk6GJQsqaUBKTNV-1">
          <mxGeometry x="190" y="380" width="100" height="100" as="geometry" />
        </mxCell>
        <mxCell id="8xb5XbixMklPuhkkYm6k-16" value="iterate through the blockcounts array and print the blockname for every blocktype and the corresponding amount." style="ellipse;whiteSpace=wrap;html=1;aspect=fixed;" vertex="1" parent="WIyWlLk6GJQsqaUBKTNV-1">
          <mxGeometry x="172.5" y="540" width="135" height="135" as="geometry" />
        </mxCell>
      </root>
    </mxGraphModel>
  </diagram>
</mxfile>
